<svg xmlns="http://www.w3.org/2000/svg" x="0px" y="0px"
width="40" height="40"
viewBox="0 0 172 172"
style=" fill:#000000;"><g fill="none" fill-rule="nonzero" stroke="none" stroke-width="1" stroke-linecap="butt" stroke-linejoin="miter" stroke-miterlimit="10" stroke-dasharray="" stroke-dashoffset="0" font-family="none" font-weight="none" font-size="none" text-anchor="none" style="mix-blend-mode: normal"><path d="M0,172v-172h172v172z" fill="none"></path><g><path d="M6.45,144.05v-66.65c0,-28.3972 19.3371,-48.4395 47.3,-49.4113v13.3945c-19.0103,5.8953 -21.5,22.2783 -21.5,36.0168v2.15h38.7v64.5z" fill="#07689F"></path><path d="M51.6,30.2591v9.5718c-19.1909,6.8069 -21.5,24.5358 -21.5,37.5691v4.3h4.3h34.4v60.2h-60.2v-64.5c0,-26.3934 17.4666,-45.2403 43,-47.1409M55.9,25.8c-30.0828,0 -51.6,21.5172 -51.6,51.6v68.8h68.8v-68.8h-38.7c0,-15.0414 3.2637,-29.5367 21.5,-34.4v-17.2z" fill="#07689F"></path><g><path d="M101.05,144.05v-66.65c0,-28.3972 19.3371,-48.4395 47.3,-49.4113v13.3945c-19.0103,5.8953 -21.5,22.2783 -21.5,36.0168v2.15h38.7v64.5z" fill="#07689F"></path><path d="M146.2,30.2591v9.5718c-19.1909,6.8069 -21.5,24.5358 -21.5,37.5691v4.3h4.3h34.4v60.2h-60.2v-64.5c0,-26.3934 17.4666,-45.2403 43,-47.1409M150.5,25.8c-30.0828,0 -51.6,21.5172 -51.6,51.6v68.8h68.8v-68.8h-38.7c0,-15.0414 3.2637,-29.5367 21.5,-34.4v-17.2z" fill="#07689F"></path></g></g></g></svg>